<svg width="19" height="20" viewBox="0 0 19 20" fill="none" xmlns="http://www.w3.org/2000/svg">
<path d="M0.378393 17.4334C-0.116299 17.9375 -0.139855 18.8377 0.390171 19.3658C0.90842 19.8939 1.7918 19.8819 2.28649 19.3778L9.49485 12.0204L16.715 19.3778C17.2215 19.8939 18.0931 19.8939 18.6113 19.3658C19.1178 18.8257 19.1296 17.9495 18.6113 17.4334L11.403 10.0761L18.6113 2.7307C19.1296 2.2146 19.1296 1.32644 18.6113 0.798343C18.0813 0.282248 17.2215 0.270246 16.715 0.786341L9.49485 8.1437L2.28649 0.786341C1.7918 0.282248 0.896641 0.258244 0.390171 0.798343C-0.128077 1.32644 -0.116299 2.22661 0.378393 2.7307L7.59854 10.0761L0.378393 17.4334Z" fill="#333333"/>
</svg>
