<svg width="31" height="30" viewBox="0 0 31 30" fill="none" xmlns="http://www.w3.org/2000/svg">
<path fill-rule="evenodd" clip-rule="evenodd" d="M0.5 15C0.5 6.71573 7.21573 0 15.5 0C23.7843 0 30.5 6.71573 30.5 15C30.5 23.2843 23.7843 30 15.5 30C7.21573 30 0.5 23.2843 0.5 15ZM15.4784 11.0133C16.6971 11.0133 17.5193 11.5406 17.9881 11.9811L19.8199 10.19C18.6948 9.14278 17.2308 8.5 15.4784 8.5C12.9398 8.5 10.7474 9.95889 9.68007 12.0822L11.7787 13.7144C12.3052 12.1472 13.7619 11.0133 15.4784 11.0133ZM21.7094 15.1444C21.7094 14.61 21.6661 14.22 21.5723 13.8156H15.4784V16.2278H19.0554C18.9833 16.8272 18.5939 17.73 17.7284 18.3367L19.7766 19.9256C21.0026 18.7917 21.7094 17.1233 21.7094 15.1444ZM11.7859 16.2856C11.6489 15.8811 11.5696 15.4478 11.5696 15C11.5696 14.5522 11.6489 14.1189 11.7787 13.7144L9.68007 12.0822C9.24015 12.9633 8.98773 13.9528 8.98773 15C8.98773 16.0472 9.24015 17.0367 9.68007 17.9178L11.7859 16.2856ZM15.4784 21.5C17.2308 21.5 18.702 20.9222 19.7766 19.9256L17.7284 18.3367C17.1803 18.7194 16.4447 18.9867 15.4784 18.9867C13.7619 18.9867 12.3052 17.8528 11.7859 16.2856L9.68728 17.9178C10.7546 20.0411 12.9398 21.5 15.4784 21.5Z" fill="#333333"/>
</svg>
