<svg width="80" height="80" viewBox="0 0 80 80" fill="none" xmlns="http://www.w3.org/2000/svg">
<rect x="1.48148" y="1.48148" width="77.037" height="77.037" fill="#333333" stroke="#333333" stroke-width="2.96296"/>
<path d="M9.41019 32.1111V48.7037H17.9435V46.8074H11.425V32.1111H9.41019ZM20.5491 40.4074C20.5491 39.159 20.8177 38.045 21.355 37.0652C21.9081 36.0855 22.6587 35.3111 23.6069 34.7423C24.555 34.1734 25.6296 33.8889 26.8306 33.8889C28.0473 33.8889 29.1219 34.1734 30.0543 34.7423C31.0024 35.3111 31.7451 36.0855 32.2824 37.0652C32.8355 38.045 33.112 39.159 33.112 40.4074C33.112 41.6558 32.8355 42.7699 32.2824 43.7497C31.7451 44.7294 31.0024 45.5037 30.0543 46.0726C29.1219 46.6415 28.0473 46.926 26.8306 46.926C25.6296 46.926 24.555 46.6415 23.6069 46.0726C22.6587 45.5037 21.9081 44.7294 21.355 43.7497C20.8177 42.7699 20.5491 41.6558 20.5491 40.4074ZM18.4157 40.4074C18.4157 41.6084 18.6212 42.7304 19.032 43.7734C19.4587 44.8163 20.0513 45.725 20.8098 46.4993C21.5683 47.2578 22.4612 47.8583 23.4883 48.3008C24.5155 48.7274 25.6296 48.9408 26.8306 48.9408C28.0473 48.9408 29.1614 48.7274 30.1728 48.3008C31.1999 47.8583 32.0928 47.2578 32.8513 46.4993C33.6098 45.725 34.1945 44.8163 34.6054 43.7734C35.032 42.7304 35.2454 41.6084 35.2454 40.4074C35.2454 39.1906 35.032 38.0687 34.6054 37.0415C34.1945 35.9986 33.6098 35.0978 32.8513 34.3393C32.0928 33.565 31.1999 32.9645 30.1728 32.5378C29.1614 32.0953 28.0473 31.8741 26.8306 31.8741C25.6296 31.8741 24.5155 32.0953 23.4883 32.5378C22.4612 32.9645 21.5683 33.565 20.8098 34.3393C20.0513 35.0978 19.4587 35.9986 19.032 37.0415C18.6212 38.0687 18.4157 39.1906 18.4157 40.4074ZM45.7944 42.1852H51.3174C51.1752 42.8331 50.9461 43.4415 50.63 44.0104C50.3298 44.5793 49.9426 45.085 49.4685 45.5274C48.9944 45.9699 48.4256 46.3176 47.7619 46.5704C47.114 46.8074 46.3791 46.926 45.5574 46.926C44.388 46.926 43.3293 46.6494 42.3811 46.0963C41.433 45.5432 40.6744 44.7768 40.1056 43.7971C39.5525 42.8173 39.2759 41.6874 39.2759 40.4074C39.2759 39.1116 39.5525 37.9818 40.1056 37.0178C40.6744 36.0381 41.433 35.2716 42.3811 34.7185C43.3293 34.1655 44.388 33.8889 45.5574 33.8889C46.8216 33.8889 47.9199 34.1418 48.8522 34.6474C49.7846 35.1373 50.5115 35.8247 51.033 36.7097L52.4552 35.406C51.9811 34.6316 51.3964 33.9837 50.7011 33.4623C50.0216 32.9408 49.2473 32.5457 48.3781 32.2771C47.5248 32.0084 46.5846 31.8741 45.5574 31.8741C44.3564 31.8741 43.2423 32.0874 42.2152 32.5141C41.188 32.925 40.2952 33.5176 39.5367 34.2919C38.7782 35.0504 38.1856 35.9511 37.7589 36.9941C37.348 38.0371 37.1426 39.1748 37.1426 40.4074C37.1426 41.64 37.348 42.7778 37.7589 43.8208C38.1856 44.8637 38.7782 45.7724 39.5367 46.5467C40.2952 47.3052 41.188 47.8978 42.2152 48.3245C43.2423 48.7353 44.3564 48.9408 45.5574 48.9408C46.8216 48.9408 47.9436 48.7116 48.9233 48.2534C49.9189 47.7793 50.7564 47.1393 51.4359 46.3334C52.1154 45.5274 52.629 44.6109 52.9767 43.5837C53.3243 42.5408 53.4982 41.4425 53.4982 40.2889H45.7944V42.1852ZM57.6556 40.4074C57.6556 39.159 57.9242 38.045 58.4615 37.0652C59.0146 36.0855 59.7652 35.3111 60.7133 34.7423C61.6615 34.1734 62.736 33.8889 63.937 33.8889C65.1538 33.8889 66.2284 34.1734 67.1607 34.7423C68.1089 35.3111 68.8516 36.0855 69.3889 37.0652C69.942 38.045 70.2185 39.159 70.2185 40.4074C70.2185 41.6558 69.942 42.7699 69.3889 43.7497C68.8516 44.7294 68.1089 45.5037 67.1607 46.0726C66.2284 46.6415 65.1538 46.926 63.937 46.926C62.736 46.926 61.6615 46.6415 60.7133 46.0726C59.7652 45.5037 59.0146 44.7294 58.4615 43.7497C57.9242 42.7699 57.6556 41.6558 57.6556 40.4074ZM55.5222 40.4074C55.5222 41.6084 55.7277 42.7304 56.1385 43.7734C56.5652 44.8163 57.1578 45.725 57.9163 46.4993C58.6748 47.2578 59.5677 47.8583 60.5948 48.3008C61.622 48.7274 62.736 48.9408 63.937 48.9408C65.1538 48.9408 66.2679 48.7274 67.2793 48.3008C68.3064 47.8583 69.1993 47.2578 69.9578 46.4993C70.7163 45.725 71.301 44.8163 71.7119 43.7734C72.1385 42.7304 72.3519 41.6084 72.3519 40.4074C72.3519 39.1906 72.1385 38.0687 71.7119 37.0415C71.301 35.9986 70.7163 35.0978 69.9578 34.3393C69.1993 33.565 68.3064 32.9645 67.2793 32.5378C66.2679 32.0953 65.1538 31.8741 63.937 31.8741C62.736 31.8741 61.622 32.0953 60.5948 32.5378C59.5677 32.9645 58.6748 33.565 57.9163 34.3393C57.1578 35.0978 56.5652 35.9986 56.1385 37.0415C55.7277 38.0687 55.5222 39.1906 55.5222 40.4074Z" fill="white"/>
</svg>
