<svg width="30" height="30" viewBox="0 0 30 30" fill="none" xmlns="http://www.w3.org/2000/svg">
<path fill-rule="evenodd" clip-rule="evenodd" d="M30 15C30 23.2843 23.2843 30 15 30C6.71573 30 0 23.2843 0 15C0 6.71573 6.71573 0 15 0C23.2843 0 30 6.71573 30 15ZM15.8675 11.0437C14.4085 11.6505 11.4927 12.9065 7.11985 14.8117C6.40978 15.094 6.03781 15.3703 6.00395 15.6404C5.94672 16.0969 6.51838 16.2766 7.29683 16.5214C7.40272 16.5547 7.51243 16.5892 7.62491 16.6258C8.39078 16.8747 9.42102 17.166 9.9566 17.1775C10.4424 17.188 10.9846 16.9878 11.5833 16.5767C15.6689 13.8188 17.778 12.4248 17.9104 12.3947C18.0038 12.3735 18.1332 12.3469 18.2209 12.4248C18.3087 12.5028 18.3 12.6504 18.2907 12.69C18.2341 12.9314 15.9901 15.0176 14.8289 16.0972C14.4669 16.4338 14.2101 16.6725 14.1576 16.727C14.04 16.8492 13.9201 16.9647 13.805 17.0758C13.0934 17.7617 12.5599 18.276 13.8345 19.116C14.447 19.5196 14.9372 19.8534 15.4262 20.1864C15.9602 20.5501 16.4928 20.9128 17.182 21.3646C17.3576 21.4797 17.5253 21.5992 17.6886 21.7157C18.3101 22.1587 18.8684 22.5568 19.5582 22.4933C19.959 22.4564 20.3731 22.0795 20.5833 20.9554C21.0803 18.2989 22.057 12.5431 22.2828 10.1712C22.3025 9.96341 22.2777 9.69746 22.2577 9.58072C22.2377 9.46397 22.1959 9.29764 22.0442 9.1745C21.8645 9.02867 21.587 8.99792 21.4629 9.00011C20.8988 9.01004 20.0332 9.31102 15.8675 11.0437Z" fill="#333333"/>
</svg>
