<svg width="30" height="30" viewBox="0 0 30 30" fill="none" xmlns="http://www.w3.org/2000/svg">
<path fill-rule="evenodd" clip-rule="evenodd" d="M2.10883 2.10883C0 4.21766 0 7.61175 0 14.4V15.6C0 22.3883 0 25.7823 2.10883 27.8912C4.21766 30 7.61175 30 14.4 30H15.6C22.3882 30 25.7823 30 27.8912 27.8912C30 25.7823 30 22.3883 30 15.6V14.4C30 7.61175 30 4.21766 27.8912 2.10883C25.7823 0 22.3882 0 15.6 0H14.4C7.61175 0 4.21766 0 2.10883 2.10883ZM14.9688 6.60001C17.1661 6.60001 19.3176 7.45972 20.874 9.04334C22.4304 10.5817 23.3003 12.6631 23.3003 14.8803C23.3003 19.4501 19.5465 23.2057 14.923 23.2057C13.5496 23.2057 12.1764 22.8889 10.9404 22.2102L6.5 23.3414L7.69024 19.0429C7.00354 17.776 6.59155 16.3733 6.59155 14.9254C6.5458 10.3555 10.2996 6.60001 14.9688 6.60001ZM11.4439 20.8529C12.4968 21.4864 13.7328 21.803 14.9688 21.803C16.2506 21.803 17.5323 21.441 18.5852 20.7623C21.8811 18.7714 22.8425 14.5635 20.8283 11.3057C18.8141 8.04792 14.5568 7.09772 11.2608 9.08855C7.96488 11.0794 7.00354 15.3328 9.01777 18.5453L9.20086 18.8168L8.51423 21.3958L11.1693 20.7171L11.4439 20.8529ZM18.4936 16.5544L18.9972 16.7807C19.0887 16.8259 19.1345 16.8712 19.1345 16.8712V17.1879L19.1343 17.1889C19.0886 17.4147 19.0428 17.6406 18.9514 17.8213C18.9056 17.9118 18.8141 18.0023 18.7225 18.0928C18.6767 18.1381 18.631 18.172 18.5852 18.2059C18.5394 18.2398 18.4937 18.2738 18.4479 18.319L18.3563 18.4096C18.3049 18.4604 18.2535 18.4826 18.194 18.5084C18.1475 18.5286 18.0961 18.5509 18.0359 18.5905C17.8527 18.681 17.5781 18.7715 17.3492 18.7715H16.8915C16.8227 18.7489 16.7426 18.7375 16.6624 18.7262C16.5823 18.7149 16.5023 18.7036 16.4337 18.681C15.1977 18.3643 14.099 17.7761 13.1377 16.9616C13.0779 16.873 12.9986 16.8037 12.9126 16.7284C12.8668 16.6884 12.8192 16.6468 12.7715 16.5996L12.5884 16.4187C11.8559 15.74 11.3066 14.9708 10.8946 14.1111L10.8488 13.9753C10.7115 13.6586 10.6199 13.2966 10.6199 12.9346C10.6199 12.4369 10.803 11.9392 11.1235 11.532C11.1692 11.4867 11.2036 11.4415 11.2379 11.3962C11.2723 11.351 11.3066 11.3058 11.3524 11.2605C11.3982 11.2379 11.444 11.2039 11.4898 11.1699C11.5355 11.136 11.5813 11.1021 11.627 11.0795L11.6728 11.0343C11.7186 11.0343 11.7644 11.023 11.8102 11.0117C11.8559 11.0003 11.9017 10.989 11.9475 10.989H12.4511C12.5884 11.0343 12.6799 11.0795 12.7715 11.2153C12.9088 11.4867 13.4582 12.7084 13.5039 12.9346C13.5497 13.0704 13.5039 13.2514 13.4123 13.3871C13.3666 13.4324 13.3323 13.4889 13.2979 13.5455C13.2636 13.602 13.2293 13.6586 13.1834 13.7039C13.0462 13.8396 12.8631 14.0658 12.8631 14.0658C12.8173 14.1111 12.8173 14.2016 12.8173 14.2921C12.8348 14.3267 12.8456 14.3547 12.8548 14.3785C12.8698 14.4171 12.8806 14.4451 12.9088 14.473L12.9546 14.5635C13.1834 14.9708 13.5039 15.3328 13.8243 15.6495C13.8701 15.6947 13.9273 15.74 13.9846 15.7852C14.0418 15.8305 14.099 15.8757 14.1448 15.921C14.511 16.2829 14.9688 16.5544 15.4723 16.7807L15.7012 16.8712C15.747 16.9164 15.8386 16.9616 15.8843 16.9616H15.9301C16.0217 16.9616 16.1132 16.9164 16.159 16.8259C16.7999 16.1019 16.8456 16.0567 16.8456 16.0567C16.9372 16.0114 17.0287 15.9662 17.1661 15.9662C17.189 15.9662 17.2119 15.9775 17.2348 15.9888C17.2577 16.0001 17.2805 16.0114 17.3034 16.0114C17.7612 16.2377 18.4936 16.5544 18.4936 16.5544Z" fill="#333333"/>
</svg>
